<?xml version="1.0" encoding="iso-8859-1"?>
<!-- Generator: Adobe Illustrator 26.0.1, SVG Export Plug-In . SVG Version: 6.00 Build 0)  -->
<svg version="1.1" xmlns="http://www.w3.org/2000/svg" xmlns:xlink="http://www.w3.org/1999/xlink" x="0px" y="0px"
	 width="566.929px" height="243.575px" viewBox="0 0 566.929 243.575" enable-background="new 0 0 566.929 243.575"
	 xml:space="preserve">
<g id="bg">
</g>
<g id="swirl">
</g>
<g id="NOISE">
</g>
<g id="copy">
	<g>
		<g>
			<linearGradient id="SVGID_1_" gradientUnits="userSpaceOnUse" x1="30.7766" y1="146.1759" x2="185.1105" y2="117.5065">
				<stop  offset="0.0056" style="stop-color:#F18318"/>
				<stop  offset="1" style="stop-color:#E6007E"/>
			</linearGradient>
			<path fill="url(#SVGID_1_)" d="M133.776,118.539c2.43-1.184,5.024-2.035,7.687-2.519c2.664-0.503,5.392-0.565,8.089-0.414
				c2.698,0.185,5.374,0.583,8.022,1.062c2.648,0.464,5.285,1,7.926,1.193c2.62,0.21,5.334-0.061,7.487-1.442
				c2.157-1.367,3.636-3.613,4.548-6.017c1.77-4.903,1.644-10.368,0.698-15.508c-0.974-5.167-2.883-10.168-5.619-14.611
				c-1.379-2.212-2.947-4.306-4.769-6.133c-1.822-1.84-3.809-3.39-6.075-4.411c-2.265-1.036-4.801-1.602-7.38-2.045
				c-2.581-0.447-5.241-0.7-7.892-0.966c-5.318-0.493-10.682-0.859-16.042-1.26c-10.719-0.859-21.445-1.784-32.153-2.847
				l-16.035-1.698c-2.662-0.269-5.329-0.554-7.951-0.705c-2.627-0.144-5.185-0.201-7.58,0.334c-1.207,0.23-2.413,0.637-3.629,1.066
				l-3.603,1.485l-3.491,1.761l-3.365,2.011c-4.393,2.844-8.426,6.269-11.976,10.127c-3.545,3.86-6.616,8.168-8.956,12.835
				c-2.334,4.66-3.928,9.703-4.349,14.856l-0.156,1.932l0.068,1.932l0.072,1.932l0.25,1.911c0.416,2.53,1.207,4.972,2.374,7.24
				c2.313,4.572,6.17,8.275,10.072,11.9c3.943,3.612,7.999,7.237,11.68,11.244c3.702,3.984,7.054,8.312,9.963,12.909
				c5.82,9.19,10.11,19.309,12.76,29.829c1.351,5.251,2.238,10.603,3.153,15.879c0.478,2.628,0.966,5.254,1.803,7.701
				c0.838,2.428,2.195,4.637,4.389,5.736c2.181,1.115,4.82,1.338,7.347,0.907c2.549-0.384,5.02-1.351,7.36-2.532
				c4.657-2.446,8.82-5.89,12.252-9.923c3.415-4.037,6.21-8.69,7.652-13.791c0.733-2.54,1.095-5.188,1.006-7.82
				c-0.078-2.636-0.723-5.229-1.715-7.695c-0.984-2.473-2.252-4.85-3.313-7.338c-1.072-2.48-1.901-5.093-2.284-7.78
				c-0.802-5.382-0.011-10.868,1.599-16c1.646-5.14,4.241-9.967,7.614-14.18c1.713-2.083,3.582-4.044,5.669-5.761
				C129.084,121.227,131.353,119.742,133.776,118.539z M133.924,118.846c-2.395,1.19-4.642,2.66-6.722,4.343
				c-2.067,1.702-3.92,3.647-5.619,5.712c-3.346,4.179-5.921,8.971-7.553,14.07c-1.593,5.094-2.259,10.551-1.418,15.816
				c0.409,2.632,1.251,5.177,2.34,7.614c1.078,2.444,2.375,4.804,3.412,7.314c1.051,2.498,1.767,5.187,1.89,7.926
				c0.135,2.736-0.2,5.481-0.916,8.115c-1.409,5.291-4.209,10.111-7.653,14.313c-3.466,4.198-7.679,7.806-12.501,10.436
				c-2.428,1.271-5.012,2.338-7.782,2.802c-2.737,0.503-5.74,0.35-8.388-0.953c-1.317-0.663-2.472-1.679-3.328-2.859
				c-0.865-1.181-1.468-2.488-1.947-3.799c-0.924-2.639-1.434-5.315-1.939-7.966c-0.963-5.305-1.879-10.564-3.249-15.718
				c-2.681-10.302-6.974-20.193-12.727-29.121c-2.874-4.464-6.167-8.645-9.811-12.506c-3.627-3.885-7.625-7.405-11.635-11.019
				c-1.997-1.816-3.991-3.678-5.846-5.724c-1.855-2.038-3.566-4.288-4.865-6.802c-1.314-2.501-2.217-5.226-2.693-7.995
				c-0.111-0.693-0.193-1.389-0.29-2.083c-0.047-0.697-0.066-1.396-0.099-2.094l-0.086-2.096l0.147-2.087
				c0.399-5.571,2.057-10.972,4.478-15.93c2.428-4.966,5.613-9.523,9.292-13.612c3.686-4.086,7.875-7.719,12.477-10.764l3.534-2.16
				l3.688-1.906l3.834-1.625c1.311-0.478,2.655-0.949,4.086-1.241c2.868-0.649,5.746-0.582,8.471-0.451
				c2.746,0.143,5.426,0.415,8.113,0.67l16.041,1.627c10.681,1.104,21.371,2.07,32.078,2.973c5.352,0.499,10.707,0.962,16.082,1.56
				c2.69,0.321,5.381,0.624,8.089,1.142c2.697,0.517,5.449,1.166,8.06,2.414c2.634,1.225,4.871,3.144,6.759,5.176
				c1.911,2.045,3.512,4.336,4.899,6.727c2.746,4.801,4.561,10.08,5.407,15.501c0.433,2.71,0.587,5.467,0.441,8.216
				c-0.168,2.745-0.66,5.499-1.706,8.086c-1.062,2.557-2.754,4.991-5.225,6.451c-1.225,0.725-2.605,1.155-3.986,1.339
				c-1.385,0.187-2.769,0.152-4.126,0.029c-2.719-0.258-5.352-0.854-7.984-1.372c-2.63-0.526-5.268-1-7.933-1.201
				c-2.661-0.179-5.349-0.15-7.978,0.316C138.908,116.894,136.34,117.703,133.924,118.846z"/>
		</g>
		<g>
			
				<linearGradient id="SVGID_00000008145593431775176070000005200526031958617277_" gradientUnits="userSpaceOnUse" x1="24.7647" y1="142.7745" x2="188.4093" y2="112.3755">
				<stop  offset="0.0056" style="stop-color:#F18318"/>
				<stop  offset="1" style="stop-color:#E6007E"/>
			</linearGradient>
			<path fill="url(#SVGID_00000008145593431775176070000005200526031958617277_)" d="M141.864,113.055
				c4.892-2.123,10.183-3.22,15.482-3.631c2.652-0.21,5.309-0.309,7.953-0.419c2.639-0.127,5.289-0.265,7.816-0.867
				c2.525-0.574,4.863-1.858,6.378-3.892c1.561-2.003,2.309-4.534,2.579-7.07c0.47-5.136-0.798-10.343-2.664-15.174
				c-1.9-4.842-4.52-9.43-7.784-13.416c-3.23-3.988-7.471-7.071-12.042-9.331c-4.578-2.298-9.629-3.605-14.752-4.421
				c-5.135-0.801-10.366-1.161-15.615-1.223c-5.249-0.094-10.514-0.044-15.785,0.216c-5.273,0.229-10.554,0.542-15.759,1.064
				c-5.207,0.516-10.392,1.273-15.259,2.791c-2.406,0.812-4.751,1.751-6.908,3.041c-2.158,1.29-4.187,2.843-6.207,4.514
				c-2.019,1.68-4.084,3.403-6.217,5.053c-1.087,0.801-2.164,1.619-3.277,2.384c-1.118,0.743-2.257,1.528-3.357,2.235
				c-4.432,2.852-8.781,5.816-12.909,9.036c-4.12,3.221-8.035,6.701-11.402,10.622c-3.343,3.915-6.188,8.295-7.69,13.138
				l-0.475,1.833l-0.238,0.917l-0.127,0.937l-0.26,1.873c-0.075,0.625-0.036,1.26-0.062,1.889c-0.121,2.524,0.259,5.05,0.951,7.461
				c1.4,4.852,4.407,9.137,7.926,12.954c3.522,3.839,7.484,7.353,11.359,10.99c3.879,3.636,7.711,7.38,11.199,11.456
				c7.07,8.104,12.395,17.593,16.448,27.453c1.02,2.467,1.955,4.962,2.887,7.442c0.936,2.475,1.853,4.951,2.988,7.266
				c1.128,2.303,2.569,4.443,4.649,5.679c1.031,0.623,2.189,1.031,3.419,1.247c1.223,0.249,2.491,0.301,3.753,0.236
				c2.533-0.112,5.051-0.768,7.45-1.714c2.408-0.937,4.686-2.224,6.839-3.682c4.306-2.932,8.066-6.689,11.074-10.959
				c3.005-4.264,5.22-9.145,6.024-14.302c0.319-2.578,0.419-5.203-0.045-7.777c-0.451-2.57-1.301-5.062-2.343-7.48
				c-1.036-2.424-2.264-4.776-3.308-7.232c-1.045-2.449-1.888-5.027-2.184-7.698c-0.633-5.358,0.982-10.785,3.83-15.262
				c2.867-4.535,7.078-8.008,11.51-10.901C132.193,117.47,136.989,115.146,141.864,113.055z M141.998,113.369
				c-4.864,2.087-9.644,4.405-14.103,7.25c-4.408,2.877-8.58,6.322-11.407,10.797c-1.426,2.213-2.466,4.666-3.104,7.215
				c-0.665,2.548-0.829,5.208-0.504,7.8c0.322,2.6,1.175,5.108,2.238,7.514c1.061,2.412,2.319,4.75,3.399,7.189
				c1.092,2.431,2.007,4.972,2.514,7.622c0.521,2.656,0.464,5.383,0.172,8.061c-0.75,5.354-2.959,10.418-5.981,14.853
				c-3.028,4.441-6.828,8.363-11.24,11.47c-2.209,1.546-4.556,2.922-7.077,3.95c-2.511,1.034-5.18,1.783-7.951,1.951
				c-1.38,0.083-2.784,0.037-4.163-0.23c-1.379-0.232-2.77-0.698-4.014-1.438c-2.537-1.49-4.174-3.971-5.379-6.376
				c-1.219-2.44-2.162-4.939-3.122-7.412c-0.953-2.475-1.899-4.938-2.925-7.363c-4.08-9.694-9.354-18.906-16.313-26.753
				c-3.441-3.958-7.235-7.607-11.119-11.189c-3.881-3.588-7.897-7.086-11.583-11.034c-3.668-3.915-6.998-8.508-8.601-13.888
				c-0.792-2.669-1.226-5.458-1.123-8.234c0.021-0.694-0.02-1.392,0.055-2.082l0.268-2.068l0.137-1.034l0.25-1.01l0.508-2.02
				c1.598-5.333,4.622-10.058,8.097-14.215c3.504-4.163,7.523-7.8,11.716-11.148c4.201-3.346,8.594-6.403,13.047-9.334
				c1.122-0.738,2.157-1.471,3.24-2.206c1.063-0.747,2.09-1.544,3.129-2.325c2.045-1.617,4.035-3.31,6.074-5.042
				c2.054-1.719,4.231-3.418,6.619-4.863c2.394-1.449,4.987-2.509,7.596-3.403c5.259-1.661,10.627-2.494,15.96-3.01
				c5.347-0.513,10.658-0.803,15.979-1.013c5.322-0.241,10.667-0.271,16.017-0.151c5.349,0.163,10.72,0.628,16.046,1.56
				c5.312,0.948,10.632,2.419,15.505,4.975c4.865,2.528,9.264,6.02,12.598,10.389c3.315,4.331,5.856,9.158,7.667,14.242
				c1.771,5.071,2.936,10.505,2.268,15.966c-0.372,2.696-1.265,5.429-3.054,7.583c-0.877,1.078-1.967,1.989-3.181,2.653
				c-1.214,0.667-2.525,1.105-3.847,1.396c-2.654,0.57-5.334,0.646-7.985,0.718c-2.654,0.061-5.3,0.078-7.936,0.268
				C152.12,110.297,146.876,111.321,141.998,113.369z"/>
		</g>
		<g>
			
				<linearGradient id="SVGID_00000149382393848321596570000004665934434020864163_" gradientUnits="userSpaceOnUse" x1="17.8" y1="134.6362" x2="191.8706" y2="102.3005">
				<stop  offset="0.0056" style="stop-color:#F18318"/>
				<stop  offset="1" style="stop-color:#E6007E"/>
			</linearGradient>
			<path fill="url(#SVGID_00000149382393848321596570000004665934434020864163_)" d="M149.952,107.572
				c5.042-1.949,10.275-3.348,15.512-4.615c2.62-0.633,5.232-1.29,7.796-2.072c2.552-0.792,5.089-1.716,7.292-3.16
				c2.221-1.417,3.917-3.51,4.828-5.931c0.929-2.423,1.002-5.1,0.657-7.681c-0.77-5.202-3.148-10.084-5.933-14.576
				c-2.837-4.472-6.189-8.708-10.029-12.253c-3.95-3.473-8.422-6.372-13.147-8.699c-4.726-2.341-9.736-4.097-14.868-5.323
				c-1.293-0.268-2.564-0.631-3.872-0.823l-3.91-0.633l-3.942-0.398c-1.311-0.158-2.638-0.136-3.956-0.214
				c-5.275-0.191-10.583-0.007-15.823,0.769l-1.968,0.255l-1.953,0.36c-1.3,0.252-2.61,0.452-3.902,0.746
				c-2.57,0.64-5.181,1.186-7.663,2.024c-5.01,1.535-9.838,3.608-13.796,6.832c-4.004,3.174-7.013,7.455-9.961,11.965
				c-2.965,4.492-6.124,9.03-9.791,13.128c-0.938,1.004-1.823,2.061-2.806,3.02l-2.956,2.869c-0.997,0.942-2.07,1.796-3.101,2.698
				c-1.038,0.898-2.081,1.784-3.151,2.606c-4.241,3.374-8.584,6.591-12.826,9.874c-4.231,3.283-8.404,6.642-11.787,10.595
				c-1.636,2-3.156,4.106-4.113,6.454c-0.961,2.337-1.539,4.82-1.615,7.371c-0.228,5.117,1.586,10.141,4.363,14.54
				c2.787,4.428,6.437,8.344,10.265,12.058c3.843,3.716,7.915,7.234,11.937,10.84c4.018,3.608,8.018,7.287,11.671,11.346
				c3.606,4.096,6.911,8.388,10.087,12.761c1.594,2.179,3.155,4.37,4.804,6.454c1.651,2.075,3.4,4.061,5.477,5.537
				c2.056,1.51,4.516,2.297,7.084,2.464l1.94,0.075c0.647,0.048,1.295-0.089,1.942-0.123c1.303-0.05,2.575-0.376,3.855-0.637
				c0.648-0.097,1.258-0.36,1.888-0.54c0.621-0.21,1.26-0.371,1.869-0.619l1.816-0.775l0.908-0.389l0.872-0.468l1.746-0.936
				c0.579-0.317,1.116-0.708,1.677-1.059c0.548-0.37,1.125-0.698,1.651-1.101l1.575-1.211c1.083-0.769,2.006-1.731,3.01-2.597
				c0.972-0.902,1.844-1.907,2.772-2.855c0.819-1.042,1.708-2.035,2.473-3.119c0.724-1.11,1.563-2.152,2.169-3.335
				c2.649-4.573,4.477-9.727,4.62-15.034c0.085-2.648-0.265-5.299-0.942-7.871c-0.682-2.574-1.682-5.063-2.795-7.505
				c-1.115-2.443-2.344-4.847-3.389-7.35c-1.048-2.491-1.893-5.14-2.001-7.888c-0.052-1.368,0.068-2.749,0.405-4.077
				c0.186-0.658,0.361-1.322,0.645-1.944c0.266-0.629,0.492-1.275,0.862-1.854c1.296-2.417,3.318-4.363,5.566-5.864
				c4.558-2.979,9.733-4.707,14.774-6.574C139.839,111.291,144.922,109.503,149.952,107.572z M150.074,107.891
				c-5.034,1.933-10.122,3.723-15.193,5.542c-5.037,1.864-10.205,3.597-14.699,6.536c-2.229,1.47-4.159,3.417-5.394,5.776
				c-0.353,0.566-0.565,1.201-0.816,1.816c-0.27,0.609-0.431,1.256-0.603,1.895c-0.311,1.29-0.409,2.623-0.342,3.944
				c0.138,2.653,0.988,5.223,2.054,7.671c1.062,2.458,2.319,4.843,3.472,7.289c1.159,2.442,2.216,4.957,2.956,7.586
				c0.736,2.628,1.142,5.365,1.095,8.111c-0.064,5.507-1.875,10.863-4.533,15.619c-0.609,1.23-1.452,2.315-2.183,3.471
				c-0.772,1.129-1.669,2.165-2.499,3.252c-0.939,0.992-1.824,2.041-2.812,2.987c-1.021,0.91-1.96,1.916-3.066,2.729l-1.61,1.277
				c-0.538,0.425-1.13,0.776-1.692,1.168c-0.576,0.373-1.126,0.785-1.723,1.125l-1.802,1.002l-0.902,0.501l-0.943,0.422l-1.889,0.84
				c-0.635,0.269-1.304,0.453-1.956,0.683c-0.661,0.201-1.298,0.483-1.986,0.6c-1.357,0.29-2.703,0.641-4.103,0.712
				c-0.695,0.044-1.385,0.189-2.085,0.147l-2.1-0.064c-2.797-0.151-5.682-1.046-7.995-2.724c-2.34-1.638-4.197-3.74-5.912-5.857
				c-1.712-2.129-3.297-4.319-4.902-6.476c-3.191-4.323-6.507-8.553-10.056-12.521c-3.593-3.93-7.568-7.532-11.595-11.091
				c-4.031-3.558-8.149-7.057-12.087-10.805c-3.923-3.75-7.727-7.744-10.732-12.429c-1.493-2.34-2.765-4.862-3.636-7.552
				c-0.877-2.683-1.327-5.538-1.237-8.381c0.06-2.848,0.688-5.693,1.76-8.34c1.07-2.668,2.726-4.999,4.475-7.169
				c3.601-4.286,7.86-7.757,12.096-11.119c4.25-3.358,8.538-6.601,12.7-9.981c1.06-0.83,2.061-1.7,3.052-2.576
				c0.988-0.882,2.02-1.718,2.971-2.637l2.818-2.79c0.938-0.931,1.774-1.956,2.666-2.929c3.486-3.977,6.463-8.339,9.388-12.867
				l2.259-3.394c0.805-1.118,1.581-2.257,2.448-3.349c0.9-1.075,1.732-2.197,2.763-3.18l1.488-1.514l1.636-1.366
				c4.415-3.621,9.67-5.923,14.933-7.519c2.636-0.873,5.311-1.421,7.973-2.071c1.336-0.298,2.695-0.502,4.041-0.756l2.023-0.363
				l2.041-0.257c5.431-0.779,10.946-0.952,16.431-0.729c1.37,0.105,2.747,0.111,4.11,0.298l4.094,0.489l4.059,0.732
				c1.356,0.226,2.678,0.625,4.018,0.93c5.323,1.375,10.512,3.3,15.4,5.834c4.892,2.534,9.421,5.733,13.461,9.502
				c3.959,3.902,7.208,8.312,9.996,13.022c2.721,4.717,5.036,9.824,5.685,15.359c0.282,2.746,0.119,5.63-0.971,8.234
				c-0.555,1.288-1.275,2.507-2.196,3.567c-0.425,0.558-1.002,0.971-1.493,1.464c-0.522,0.459-1.123,0.813-1.681,1.222
				c-2.351,1.469-4.96,2.349-7.557,3.096c-2.606,0.743-5.244,1.32-7.866,1.935C160.338,104.677,155.116,106.008,150.074,107.891z"/>
		</g>
		<g>
			
				<linearGradient id="SVGID_00000067215985258867508820000014846534501283906729_" gradientUnits="userSpaceOnUse" x1="10.4729" y1="125.1148" x2="195.8782" y2="90.6735">
				<stop  offset="0.0056" style="stop-color:#F18318"/>
				<stop  offset="1" style="stop-color:#E6007E"/>
			</linearGradient>
			<path fill="url(#SVGID_00000067215985258867508820000014846534501283906729_)" d="M54.256,177.882
				c4.659,3.141,9.274,6.378,14.216,9.02c4.919,2.643,10.411,4.328,15.983,4.052c5.55-0.228,10.998-1.828,15.888-4.41
				c4.878-2.621,9.255-6.141,12.861-10.302c3.542-4.209,6.291-9.087,7.763-14.311l0.431-1.984l0.217-0.99l0.135-1.002
				c0.193-1.334,0.237-2.682,0.235-4.024c-0.034-2.688-0.515-5.351-1.226-7.957c-1.471-5.237-4.193-10.057-6.656-15.223
				c-1.202-2.592-2.372-5.358-2.721-8.506c-0.165-1.565-0.063-3.226,0.392-4.801l0.398-1.158l0.512-1.101
				c0.401-0.704,0.847-1.397,1.336-2.053l0.859-0.907c0.146-0.148,0.286-0.303,0.439-0.443l0.497-0.369l1.002-0.726
				c0.347-0.207,0.707-0.375,1.062-0.562c0.709-0.402,1.435-0.636,2.159-0.9c0.727-0.295,1.441-0.422,2.162-0.633
				c2.87-0.7,5.669-1.097,8.446-1.549c5.538-0.866,10.99-1.879,16.359-3.3c5.373-1.397,10.626-3.155,15.935-5.029
				c5.265-1.872,10.514-3.791,15.324-6.356c2.391-1.288,4.676-2.74,6.609-4.498c1.932-1.751,3.468-3.84,4.253-6.204
				c0.843-2.349,0.875-4.951,0.339-7.484c-0.524-2.543-1.59-5.024-2.91-7.372c-2.668-4.708-6.301-8.937-10.226-12.82
				c-1.971-1.941-4.032-3.799-6.172-5.573c-2.11-1.777-4.335-3.427-6.634-4.968c-9.203-6.154-19.536-10.697-30.316-13.288
				c-10.751-2.554-22.152-3.118-32.807-0.21c-5.295,1.458-10.386,3.787-14.784,7.038c-2.193,1.626-4.177,3.517-5.887,5.641
				c-1.716,2.121-3.161,4.466-4.427,6.922c-2.524,4.923-4.437,10.228-6.708,15.403c-2.236,5.191-4.825,10.27-7.887,15.049
				c-6.157,9.557-14.046,17.853-22.716,25.075c-4.328,3.635-8.971,6.866-13.525,10.138c-2.269,1.642-4.511,3.328-6.397,5.343
				c-1.917,1.987-3.213,4.495-3.708,7.203c-0.525,2.706-0.378,5.529,0.223,8.232c0.607,2.71,1.671,5.316,3.01,7.765
				c2.698,4.902,6.317,9.266,10.27,13.238C35.825,164.932,44.998,171.524,54.256,177.882z M54.062,178.163
				c-9.262-6.359-18.452-12.962-26.443-20.928c-3.971-3.982-7.695-8.29-10.478-13.232c-1.386-2.465-2.503-5.104-3.16-7.875
				c-0.649-2.767-0.841-5.674-0.328-8.503c0.469-2.833,1.824-5.545,3.791-7.637c1.934-2.125,4.192-3.869,6.447-5.553
				c4.528-3.355,9.081-6.624,13.317-10.289c8.488-7.283,16.155-15.599,22.054-25.062c2.971-4.716,5.471-9.709,7.644-14.861
				c2.21-5.136,4.076-10.457,6.646-15.572c1.29-2.549,2.788-5.03,4.593-7.296c1.799-2.269,3.903-4.305,6.212-6.045
				c4.629-3.474,9.921-5.934,15.445-7.504c11.106-3.119,22.892-2.603,33.968-0.063c11.109,2.583,21.726,7.153,31.267,13.425
				c2.386,1.567,4.702,3.25,6.912,5.074c2.207,1.794,4.345,3.684,6.4,5.668c4.092,3.977,7.922,8.317,10.862,13.38
				c1.452,2.531,2.677,5.265,3.323,8.23c0.657,2.942,0.675,6.178-0.353,9.152c-0.962,2.995-2.866,5.582-5.069,7.613
				c-2.212,2.048-4.701,3.647-7.24,5.049c-5.111,2.758-10.459,4.732-15.769,6.658c-5.287,1.889-10.689,3.77-16.208,5.187
				c-5.512,1.437-11.137,2.457-16.711,3.305c-2.773,0.438-5.552,0.83-8.148,1.455c-2.6,0.626-4.908,1.599-6.377,3.36
				c-0.346,0.464-0.677,0.957-0.985,1.459l-0.393,0.803l-0.302,0.832c-0.344,1.126-0.448,2.32-0.342,3.55
				c0.219,2.468,1.184,5.008,2.306,7.512c2.272,5.011,5.054,10.114,6.542,15.774c0.738,2.823,1.146,5.762,1.101,8.701
				c-0.041,1.468-0.137,2.937-0.39,4.379l-0.18,1.083l-0.264,1.063l-0.532,2.123c-1.752,5.565-4.819,10.598-8.643,14.871
				c-3.887,4.225-8.523,7.725-13.631,10.276c-5.121,2.522-10.777,3.965-16.473,4.076c-2.847,0.066-5.708-0.329-8.437-1.122
				c-2.737-0.785-5.328-1.972-7.811-3.312C63.266,184.646,58.689,181.356,54.062,178.163z"/>
		</g>
	</g>
	<g>
		<g>
			<path fill="#1D1D1B" d="M326.541,101.047h-13.787l0.167,23.647c0,0.251-0.167,0.418-0.418,0.418h-3.509
				c-0.251,0-0.418-0.167-0.418-0.418l0.167-30.164l-0.167-27.491c0-0.251,0.167-0.418,0.418-0.418h17.297
				c11.949,0,19.803,5.765,19.803,17.046C346.094,95.699,337.988,101.047,326.541,101.047z M312.754,94.529v3.008h13.954
				c9.358,0,15.04-3.76,15.04-13.871c0-9.191-5.598-13.453-15.375-13.453h-13.453L312.754,94.529z"/>
			<path fill="#1D1D1B" d="M385.112,125.111c-0.251,0-0.501-0.167-0.585-0.418l-6.852-19.135h-25.318l-6.768,19.135
				c-0.084,0.251-0.334,0.418-0.585,0.418h-3.509c-0.251,0-0.334-0.167-0.251-0.418l21.14-57.655
				c0.084-0.251,0.334-0.418,0.585-0.418h4.512c0.251,0,0.501,0.167,0.585,0.418l21.057,57.655c0.084,0.251,0,0.418-0.251,0.418
				H385.112z M376.422,101.882l-11.364-31.836l-11.364,31.836H376.422z"/>
			<path fill="#1D1D1B" d="M402.573,125.111c-0.251,0-0.418-0.167-0.418-0.418l0.167-28.326l-0.167-26.154h-16.628
				c-0.251,0-0.418-0.167-0.418-0.418v-2.757c0-0.251,0.167-0.418,0.418-0.418h37.685c0.251,0,0.418,0.167,0.418,0.418v2.757
				c0,0.251-0.167,0.418-0.418,0.418h-16.628l-0.167,26.154l0.167,28.326c0,0.251-0.167,0.418-0.418,0.418H402.573z"/>
			<path fill="#1D1D1B" d="M459.72,117.424l-11.364-17.965h-15.208l0.167,25.234c0,0.251-0.167,0.418-0.418,0.418h-3.509
				c-0.251,0-0.418-0.167-0.418-0.418l0.167-30.332l-0.167-27.323c0-0.251,0.167-0.418,0.418-0.418h18.383
				c12.45,0,20.388,5.515,20.388,16.21c0,9.943-6.1,15.124-15.208,16.377l16.127,25.569c0.167,0.167,0,0.334-0.167,0.334h-4.178
				c-0.251,0-0.501-0.167-0.668-0.334L459.72,117.424z M433.149,94.613v1.253h15.458c9.442,0,15.208-3.76,15.208-12.951
				c0-8.272-5.682-12.701-15.208-12.701h-15.291L433.149,94.613z"/>
			<path fill="#1D1D1B" d="M491.887,124.694c0,0.251-0.167,0.418-0.418,0.418h-3.593c-0.251,0-0.418-0.167-0.418-0.418l0.084-20.639
				l-19.051-37.1c-0.084-0.167,0.084-0.334,0.251-0.334h4.178c0.251,0,0.501,0.167,0.585,0.334l16.461,33.089l16.628-33.089
				c0.084-0.167,0.334-0.334,0.585-0.334h3.677c0.167,0,0.334,0.167,0.251,0.334l-19.302,37.434L491.887,124.694z"/>
			<path fill="#1D1D1B" d="M542.938,117.006l-15.542-23.898l-7.687,8.941l0.167,22.644c0,0.251-0.167,0.418-0.418,0.418h-3.593
				c-0.251,0-0.418-0.167-0.418-0.418l0.251-30.248l-0.167-27.407c0-0.251,0.167-0.418,0.418-0.418h3.509
				c0.251,0,0.418,0.167,0.418,0.418l-0.167,27.323v2.59l24.984-29.997c0.167-0.167,0.418-0.334,0.668-0.334h4.345
				c0.167,0,0.251,0.167,0.167,0.334l-19.553,22.728l22.895,35.094c0.084,0.167,0,0.334-0.167,0.334h-4.429
				c-0.251,0-0.501-0.167-0.668-0.334L542.938,117.006z"/>
		</g>
		<path fill="#1D1D1B" d="M226.386,125.255c-0.25,0-0.419-0.167-0.419-0.418l0.252-30.245l-0.252-27.405
			c0-0.251,0.168-0.418,0.419-0.418h7.934c16.794,0,28.574,11.112,28.574,28.909c0,19.383-13.284,29.576-28.407,29.576H226.386z
			 M230.562,121.663h4.592c10.945,0,23.31-7.687,23.31-25.901c0-16.877-10.861-25.4-23.645-25.4h-4.257
			c0,0.084-0.167,22.559-0.167,24.146C230.396,96.18,230.562,121.579,230.562,121.663z"/>
		<path fill="#1D1D1B" d="M280.461,66.633h-3.593c-0.25,0-0.417,0.167-0.417,0.418l0.083,28.745v19.802
			c0,10.945-2.256,18.047-11.948,18.047c-0.413,0-0.809-0.017-1.195-0.044v3.674c0.394,0.02,0.783,0.047,1.195,0.047
			c11.53,0,16.21-7.687,16.21-21.723V95.796l0.083-28.745C280.88,66.8,280.711,66.633,280.461,66.633z"/>
		<path fill="#1D1D1B" d="M226.386,201.978c-0.25,0-0.419-0.167-0.419-0.418l0.252-30.245l-0.252-27.405
			c0-0.251,0.168-0.418,0.419-0.418h7.934c16.794,0,28.574,11.112,28.574,28.909c0,19.383-13.284,29.576-28.407,29.576H226.386z
			 M230.562,198.386h4.592c10.945,0,23.31-7.687,23.31-25.901c0-16.877-10.861-25.4-23.645-25.4h-4.257
			c0,0.084-0.167,22.559-0.167,24.146C230.396,172.903,230.562,198.302,230.562,198.386z"/>
		<path fill="#1D1D1B" d="M280.461,143.356h-3.593c-0.25,0-0.417,0.167-0.417,0.418l0.083,28.745v19.802
			c0,10.945-2.256,18.047-11.948,18.047c-0.413,0-0.809-0.017-1.195-0.044v3.674c0.394,0.02,0.783,0.047,1.195,0.047
			c11.53,0,16.21-7.687,16.21-21.723v-19.802l0.083-28.745C280.88,143.523,280.711,143.356,280.461,143.356z"/>
		<g>
			<path fill="#1D1D1B" d="M323.703,201.331c-0.251,0-0.418-0.167-0.418-0.418l0.167-28.326l-0.167-26.154h-16.628
				c-0.251,0-0.418-0.167-0.418-0.418v-2.757c0-0.251,0.167-0.418,0.418-0.418h37.685c0.251,0,0.418,0.167,0.418,0.418v2.757
				c0,0.251-0.167,0.418-0.418,0.418h-16.628l-0.167,26.154l0.167,28.326c0,0.251-0.167,0.418-0.418,0.418H323.703z"/>
			<path fill="#1D1D1B" d="M370.66,202.25c-16.127,0-26.822-11.615-26.822-30.164c0-18.717,10.695-30.164,26.906-30.164
				c16.127,0,26.822,11.364,26.822,30.164C397.565,190.719,386.786,202.25,370.66,202.25z M370.66,198.574
				c13.787,0,22.477-9.86,22.477-26.488c0-16.544-8.69-26.488-22.477-26.488c-13.704,0-22.31,9.943-22.31,26.488
				S357.04,198.574,370.66,198.574z"/>
			<path fill="#1D1D1B" d="M409.341,173.506l0.167,27.407c0,0.251-0.167,0.418-0.418,0.418h-3.342c-0.251,0-0.418-0.167-0.418-0.418
				l0.167-27.825l-0.167-29.83c0-0.251,0.167-0.418,0.418-0.418h5.181c0.251,0,0.501,0.167,0.585,0.418l20.806,52.474l20.555-52.474
				c0.084-0.251,0.334-0.418,0.585-0.418h4.93c0.251,0,0.418,0.167,0.418,0.418l-0.084,29.83l0.167,27.825
				c0,0.251-0.167,0.418-0.418,0.418h-3.593c-0.251,0-0.418-0.167-0.418-0.418l0.167-27.407v-14.456l0.167-10.445l-20.722,52.307
				c-0.084,0.251-0.334,0.418-0.585,0.418h-2.841c-0.251,0-0.501-0.167-0.585-0.418l-20.889-52.14l0.167,10.361V173.506z"/>
			<path fill="#1D1D1B" d="M468.581,201.331c-0.251,0-0.418-0.167-0.418-0.418l0.167-30.582l-0.167-27.073
				c0-0.251,0.167-0.418,0.418-0.418h33.005c0.251,0,0.418,0.167,0.418,0.418v2.757c0,0.251-0.167,0.418-0.418,0.418h-29.078
				l-0.167,21.642h27.574c0.251,0,0.418,0.167,0.418,0.418v2.757c0,0.251-0.167,0.418-0.418,0.418h-27.574l0.167,26.07h29.747
				c0.251,0,0.418,0.167,0.418,0.418v2.757c0,0.251-0.167,0.418-0.418,0.418H468.581z"/>
			<path fill="#1D1D1B" d="M536.173,193.226l-15.542-23.898l-7.687,8.941l0.167,22.644c0,0.251-0.167,0.418-0.418,0.418H509.1
				c-0.251,0-0.418-0.167-0.418-0.418l0.251-30.248l-0.167-27.407c0-0.251,0.167-0.418,0.418-0.418h3.509
				c0.251,0,0.418,0.167,0.418,0.418l-0.167,27.323v2.59l24.984-29.997c0.167-0.167,0.418-0.334,0.668-0.334h4.345
				c0.167,0,0.251,0.167,0.167,0.334l-19.553,22.728l22.895,35.094c0.084,0.167,0,0.334-0.167,0.334h-4.429
				c-0.251,0-0.501-0.167-0.668-0.334L536.173,193.226z"/>
		</g>
		<g>
			<path fill="#1D1D1B" d="M196.352,201.331c-0.251,0-0.501-0.167-0.668-0.334l-7.019-7.52c-4.512,5.515-10.779,8.774-18.132,8.774
				c-9.609,0-18.884-5.431-18.884-16.21c0-9.024,6.685-13.704,13.704-17.714c-4.345-5.097-6.685-9.275-6.685-14.456
				c0-6.35,4.261-12.199,13.369-12.199c7.604,0,13.369,4.679,13.369,11.865c0,7.687-6.935,11.615-14.121,15.542
				c1.922,2.173,4.261,4.679,7.019,7.687l10.027,10.779c2.256-4.512,3.677-10.111,3.927-16.461c0-0.251,0.167-0.418,0.418-0.418
				h2.925c0.251,0,0.418,0.167,0.418,0.418c-0.167,7.437-2.005,14.038-5.097,19.218l10.027,10.695c0.084,0.167,0,0.334-0.167,0.334
				H196.352z M170.867,198.824c6.35,0,11.615-2.925,15.375-7.938l-13.119-14.121c-2.005-2.089-3.76-4.011-5.348-5.766
				c-6.35,3.677-11.949,7.771-11.949,15.04C155.826,193.811,161.759,198.824,170.867,198.824z M162.761,154.037
				c0,4.094,1.671,7.102,6.183,12.367c6.685-3.509,12.701-6.935,12.701-13.035c0-5.097-3.76-8.523-9.526-8.523
				C166.271,144.846,162.761,147.771,162.761,154.037z"/>
		</g>
	</g>
</g>
<g id="info">
</g>
</svg>
