<svg xmlns="http://www.w3.org/2000/svg" xmlns:xlink="http://www.w3.org/1999/xlink" width="200mm" height="85.928mm" viewBox="0 0 566.929 243.575">
  <defs>
    <linearGradient id="a" data-name="Gradient bez nazwy 8" x1="30.777" y1="146.176" x2="185.111" y2="117.507" gradientUnits="userSpaceOnUse">
      <stop offset="0.006" stop-color="#f18318"/>
      <stop offset="1" stop-color="#e6007e"/>
    </linearGradient>
    <linearGradient id="b" x1="24.765" y1="142.775" x2="188.409" y2="112.376" xlink:href="#a"/>
    <linearGradient id="c" x1="17.8" y1="134.636" x2="191.871" y2="102.3" xlink:href="#a"/>
    <linearGradient id="d" x1="10.473" y1="125.115" x2="195.878" y2="90.673" xlink:href="#a"/>
  </defs>
  <g>
    <path d="M133.776,118.539a29.719,29.719,0,0,1,7.687-2.52,33.565,33.565,0,0,1,8.089-.414,73.245,73.245,0,0,1,8.021,1.062c2.649.464,5.285,1,7.927,1.193a10.577,10.577,0,0,0,12.035-7.459c1.77-4.9,1.644-10.368.7-15.508a43.248,43.248,0,0,0-5.619-14.611,34.486,34.486,0,0,0-4.769-6.133,20.512,20.512,0,0,0-6.075-4.411,29.861,29.861,0,0,0-7.38-2.045c-2.581-.447-5.241-.7-7.893-.966-5.318-.493-10.682-.859-16.041-1.26-10.719-.859-21.445-1.784-32.153-2.847l-16.035-1.7c-2.662-.269-5.329-.554-7.951-.7a27.985,27.985,0,0,0-7.58.334,25.472,25.472,0,0,0-3.629,1.066l-3.6,1.485-3.491,1.761-3.365,2.011A62.363,62.363,0,0,0,40.673,77a56.581,56.581,0,0,0-8.956,12.835,40.821,40.821,0,0,0-4.348,14.856l-.156,1.932.069,1.933.071,1.932.25,1.911a24.5,24.5,0,0,0,2.374,7.239c2.313,4.572,6.17,8.276,10.072,11.9,3.943,3.612,8,7.238,11.68,11.244a88.612,88.612,0,0,1,9.962,12.909,102.74,102.74,0,0,1,12.761,29.829c1.351,5.251,2.238,10.6,3.153,15.878a53.262,53.262,0,0,0,1.8,7.7c.838,2.429,2.194,4.637,4.389,5.736a11.885,11.885,0,0,0,7.347.907,24.718,24.718,0,0,0,7.36-2.531,41.708,41.708,0,0,0,12.252-9.924,37.4,37.4,0,0,0,7.652-13.791,25.181,25.181,0,0,0,1.006-7.82,22.468,22.468,0,0,0-1.715-7.694c-.984-2.473-2.251-4.85-3.313-7.338a30.6,30.6,0,0,1-2.284-7.78,35.991,35.991,0,0,1,1.6-16,44.437,44.437,0,0,1,7.614-14.181,41.816,41.816,0,0,1,5.668-5.761A36.976,36.976,0,0,1,133.776,118.539Zm.148.307a36.586,36.586,0,0,0-6.722,4.343,41.441,41.441,0,0,0-5.619,5.712,44.065,44.065,0,0,0-7.554,14.07,34.91,34.91,0,0,0-1.418,15.816,30.037,30.037,0,0,0,2.341,7.614c1.077,2.443,2.375,4.8,3.412,7.313a23.29,23.29,0,0,1,1.89,7.926,26.1,26.1,0,0,1-.916,8.115,38.5,38.5,0,0,1-7.653,14.314,43.043,43.043,0,0,1-12.5,10.436,26.238,26.238,0,0,1-7.782,2.8,13.5,13.5,0,0,1-8.388-.953,9.4,9.4,0,0,1-3.328-2.86,15.084,15.084,0,0,1-1.946-3.8,54.862,54.862,0,0,1-1.94-7.966c-.963-5.3-1.879-10.563-3.249-15.717a100.611,100.611,0,0,0-12.727-29.121,86.35,86.35,0,0,0-9.811-12.506c-3.627-3.885-7.625-7.4-11.635-11.018-2-1.817-3.991-3.679-5.846-5.725a32.1,32.1,0,0,1-4.865-6.8,27.162,27.162,0,0,1-2.693-7.995c-.111-.693-.193-1.389-.29-2.084-.047-.7-.066-1.4-.1-2.094l-.086-2.1.147-2.087a43.609,43.609,0,0,1,4.478-15.93,59.551,59.551,0,0,1,9.291-13.612A65.539,65.539,0,0,1,50.891,64.179l3.534-2.161,3.688-1.906,3.834-1.625a28.7,28.7,0,0,1,4.087-1.242,31.274,31.274,0,0,1,8.471-.451c2.746.143,5.426.415,8.113.67l16.041,1.627c10.681,1.1,21.371,2.07,32.078,2.973,5.353.5,10.707.962,16.083,1.56,2.689.32,5.381.624,8.089,1.142a32.682,32.682,0,0,1,8.06,2.414,22.28,22.28,0,0,1,6.759,5.176,36.919,36.919,0,0,1,4.9,6.727,45.31,45.31,0,0,1,5.406,15.5,38.988,38.988,0,0,1,.441,8.215,25.7,25.7,0,0,1-1.706,8.086,13.205,13.205,0,0,1-5.224,6.451,10.589,10.589,0,0,1-3.986,1.339,18.376,18.376,0,0,1-4.126.029,80.778,80.778,0,0,1-7.984-1.372,65.738,65.738,0,0,0-7.933-1.2,33.082,33.082,0,0,0-7.978.315A29.316,29.316,0,0,0,133.924,118.846Z" fill="url(#a)"/>
    <path d="M141.864,113.055a48.231,48.231,0,0,1,15.482-3.631c2.652-.21,5.309-.309,7.953-.419a42.748,42.748,0,0,0,7.817-.867,10.841,10.841,0,0,0,6.378-3.892,13.792,13.792,0,0,0,2.578-7.07c.471-5.136-.8-10.343-2.663-15.174a50.115,50.115,0,0,0-7.784-13.416,35.791,35.791,0,0,0-12.043-9.331,50.445,50.445,0,0,0-14.752-4.421,109.808,109.808,0,0,0-15.615-1.222c-5.249-.095-10.514-.045-15.785.216-5.273.229-10.554.542-15.759,1.063a76.814,76.814,0,0,0-15.259,2.792,35.5,35.5,0,0,0-6.909,3.04A50.607,50.607,0,0,0,69.3,65.237c-2.019,1.68-4.084,3.4-6.216,5.052-1.087.8-2.164,1.619-3.278,2.385-1.117.743-2.256,1.527-3.356,2.235-4.432,2.853-8.782,5.816-12.91,9.036a79.126,79.126,0,0,0-11.4,10.622,37.927,37.927,0,0,0-7.69,13.138l-.475,1.833-.238.917-.128.937-.26,1.873c-.075.625-.036,1.259-.062,1.889a23.092,23.092,0,0,0,.951,7.46c1.4,4.853,4.407,9.138,7.926,12.954,3.523,3.839,7.484,7.353,11.359,10.99a145.811,145.811,0,0,1,11.2,11.456,98.5,98.5,0,0,1,16.448,27.453c1.02,2.467,1.956,4.962,2.887,7.442s1.853,4.951,2.988,7.266a12.963,12.963,0,0,0,4.649,5.679,9.9,9.9,0,0,0,3.419,1.247,14.98,14.98,0,0,0,3.753.236,23.3,23.3,0,0,0,7.45-1.714,34.88,34.88,0,0,0,6.839-3.681,43.776,43.776,0,0,0,11.075-10.959,34.259,34.259,0,0,0,6.024-14.3,25.9,25.9,0,0,0-.045-7.777,33.773,33.773,0,0,0-2.343-7.48c-1.036-2.424-2.264-4.777-3.308-7.233a27.427,27.427,0,0,1-2.183-7.7,23.657,23.657,0,0,1,3.83-15.262c2.866-4.535,7.078-8.008,11.51-10.9A97.841,97.841,0,0,1,141.864,113.055Zm.134.314a97.7,97.7,0,0,0-14.1,7.25c-4.408,2.877-8.58,6.322-11.407,10.8a24.166,24.166,0,0,0-3.1,7.215,20.7,20.7,0,0,0-.5,7.8,26.918,26.918,0,0,0,2.238,7.514c1.06,2.413,2.319,4.75,3.4,7.189a34.466,34.466,0,0,1,2.514,7.622,26.8,26.8,0,0,1,.173,8.061,35.343,35.343,0,0,1-5.981,14.853,45.071,45.071,0,0,1-11.241,11.47,36.282,36.282,0,0,1-7.076,3.95,24.882,24.882,0,0,1-7.951,1.95,16.644,16.644,0,0,1-4.163-.23,11.626,11.626,0,0,1-4.014-1.438A14.717,14.717,0,0,1,75.4,201c-1.219-2.439-2.162-4.939-3.122-7.412s-1.9-4.939-2.925-7.363a96.342,96.342,0,0,0-16.313-26.754,143.467,143.467,0,0,0-11.119-11.189c-3.88-3.588-7.9-7.086-11.582-11.034-3.668-3.915-7-8.508-8.6-13.888a25.767,25.767,0,0,1-1.123-8.234c.021-.694-.02-1.392.055-2.082l.268-2.068.137-1.034.249-1.011.508-2.019a40.723,40.723,0,0,1,8.1-14.215A82.083,82.083,0,0,1,41.643,81.546c4.2-3.346,8.594-6.4,13.048-9.335,1.121-.738,2.157-1.471,3.24-2.2,1.063-.747,2.09-1.545,3.129-2.326,2.045-1.616,4.035-3.31,6.074-5.042a53.8,53.8,0,0,1,6.619-4.863,38.936,38.936,0,0,1,7.6-3.4,77.482,77.482,0,0,1,15.96-3.01c5.347-.512,10.658-.8,15.979-1.013,5.321-.24,10.666-.27,16.017-.151a113.007,113.007,0,0,1,16.046,1.56,53.36,53.36,0,0,1,15.5,4.976,37.554,37.554,0,0,1,12.6,10.388,52.2,52.2,0,0,1,7.667,14.242c1.77,5.071,2.936,10.5,2.267,15.967a14.977,14.977,0,0,1-3.053,7.583,10.842,10.842,0,0,1-3.181,2.653,14.377,14.377,0,0,1-3.847,1.4,43.305,43.305,0,0,1-7.985.719c-2.654.061-5.3.077-7.936.268A47.8,47.8,0,0,0,142,113.369Z" fill="url(#b)"/>
    <path d="M149.952,107.572a123.174,123.174,0,0,1,15.512-4.615c2.62-.633,5.232-1.29,7.8-2.072a28.643,28.643,0,0,0,7.291-3.159A12.133,12.133,0,0,0,185.38,91.8a15.683,15.683,0,0,0,.656-7.681c-.77-5.2-3.148-10.084-5.932-14.576a61.55,61.55,0,0,0-10.029-12.252,60.187,60.187,0,0,0-13.148-8.7,70.336,70.336,0,0,0-14.868-5.323c-1.293-.268-2.564-.631-3.872-.823l-3.91-.632-3.942-.4c-1.311-.158-2.638-.136-3.956-.214a86.639,86.639,0,0,0-15.823.769l-1.968.255-1.954.36c-1.3.253-2.609.452-3.9.746-2.571.64-5.182,1.186-7.663,2.024a40.259,40.259,0,0,0-13.8,6.832c-4,3.174-7.013,7.456-9.96,11.965a112.253,112.253,0,0,1-9.791,13.128c-.938,1-1.823,2.061-2.806,3.02l-2.956,2.868c-1,.943-2.07,1.8-3.1,2.7s-2.081,1.784-3.151,2.606c-4.241,3.374-8.585,6.591-12.826,9.874a78.844,78.844,0,0,0-11.787,10.6,25.871,25.871,0,0,0-4.113,6.454,21.02,21.02,0,0,0-1.614,7.371c-.228,5.117,1.586,10.141,4.363,14.54A66.811,66.811,0,0,0,33.8,149.359c3.843,3.716,7.915,7.234,11.936,10.84A153.144,153.144,0,0,1,57.4,171.545c3.606,4.1,6.911,8.388,10.087,12.761,1.595,2.179,3.155,4.369,4.805,6.454a28.027,28.027,0,0,0,5.477,5.537,13.321,13.321,0,0,0,7.084,2.464l1.94.075a15.466,15.466,0,0,0,1.943-.123,24.164,24.164,0,0,0,3.855-.637,15.183,15.183,0,0,0,1.888-.54c.621-.21,1.26-.371,1.868-.619l1.817-.776.908-.389.872-.468,1.746-.936c.579-.316,1.116-.708,1.676-1.058.549-.37,1.126-.7,1.651-1.1l1.576-1.211c1.083-.768,2.005-1.731,3.01-2.6.972-.9,1.844-1.906,2.772-2.855.819-1.042,1.708-2.035,2.473-3.119a38.057,38.057,0,0,0,2.169-3.335,32.077,32.077,0,0,0,4.62-15.034,27.476,27.476,0,0,0-.943-7.871,47.622,47.622,0,0,0-2.795-7.5c-1.114-2.443-2.344-4.847-3.389-7.351a22.857,22.857,0,0,1-2-7.888,14.385,14.385,0,0,1,.405-4.077,13.408,13.408,0,0,1,.645-1.943,12.109,12.109,0,0,1,.862-1.855,16.74,16.74,0,0,1,5.566-5.864c4.558-2.979,9.733-4.706,14.775-6.574C139.839,111.291,144.922,109.5,149.952,107.572Zm.122.319c-5.034,1.933-10.122,3.723-15.193,5.542-5.037,1.864-10.2,3.6-14.7,6.536a15.865,15.865,0,0,0-5.394,5.776,11.785,11.785,0,0,0-.816,1.815,13,13,0,0,0-.6,1.9,13.855,13.855,0,0,0-.342,3.945,22.318,22.318,0,0,0,2.054,7.671c1.063,2.458,2.319,4.843,3.473,7.289a48.482,48.482,0,0,1,2.956,7.585,28.428,28.428,0,0,1,1.095,8.112,33.146,33.146,0,0,1-4.533,15.619,39.544,39.544,0,0,1-2.183,3.471c-.772,1.129-1.669,2.165-2.5,3.252-.939.993-1.824,2.042-2.812,2.987-1.02.91-1.96,1.916-3.066,2.729l-1.61,1.277c-.538.425-1.13.776-1.693,1.168-.575.372-1.126.785-1.723,1.125l-1.8,1-.9.5-.943.423-1.889.84c-.635.269-1.305.453-1.956.683a16.752,16.752,0,0,1-1.986.6,25.833,25.833,0,0,1-4.1.711,16.925,16.925,0,0,1-2.086.147l-2.1-.064a15.152,15.152,0,0,1-7.995-2.724,29.778,29.778,0,0,1-5.911-5.856c-1.713-2.129-3.3-4.319-4.9-6.476-3.191-4.323-6.507-8.554-10.056-12.522a151.169,151.169,0,0,0-11.595-11.091c-4.032-3.558-8.149-7.057-12.087-10.805a69.045,69.045,0,0,1-10.733-12.429,33.011,33.011,0,0,1-3.636-7.552,24.547,24.547,0,0,1-1.237-8.381,23.672,23.672,0,0,1,1.76-8.34,28.5,28.5,0,0,1,4.476-7.169A81.316,81.316,0,0,1,34.9,96.063c4.25-3.357,8.538-6.6,12.7-9.98,1.06-.831,2.061-1.7,3.052-2.577s2.02-1.718,2.972-2.636l2.818-2.791c.937-.931,1.774-1.956,2.666-2.928a108.773,108.773,0,0,0,9.388-12.868l2.259-3.393c.805-1.119,1.58-2.257,2.448-3.35a37.168,37.168,0,0,1,2.763-3.179l1.488-1.515,1.635-1.365a42.937,42.937,0,0,1,14.933-7.519c2.636-.874,5.31-1.422,7.973-2.071,1.336-.3,2.694-.5,4.04-.756l2.024-.364,2.041-.257a90.137,90.137,0,0,1,16.431-.73c1.37.105,2.747.111,4.11.3l4.094.489,4.059.732c1.356.226,2.678.625,4.017.93a73.34,73.34,0,0,1,15.4,5.834,60.6,60.6,0,0,1,13.461,9.5,63.479,63.479,0,0,1,10,13.022c2.721,4.717,5.036,9.824,5.685,15.359a16.862,16.862,0,0,1-.971,8.234,13.644,13.644,0,0,1-2.2,3.567,15.633,15.633,0,0,1-1.493,1.464c-.523.459-1.123.813-1.681,1.222a29.38,29.38,0,0,1-7.557,3.1c-2.606.743-5.244,1.32-7.866,1.935A122.836,122.836,0,0,0,150.074,107.891Z" fill="url(#c)"/>
    <path d="M54.256,177.882A165,165,0,0,0,68.472,186.9a30.864,30.864,0,0,0,15.982,4.052,37.535,37.535,0,0,0,15.889-4.409,45.7,45.7,0,0,0,12.861-10.3,38.8,38.8,0,0,0,7.763-14.312l.431-1.983.217-.99.134-1a27.65,27.65,0,0,0,.235-4.024,31.871,31.871,0,0,0-1.225-7.957c-1.472-5.237-4.193-10.057-6.656-15.223a27.247,27.247,0,0,1-2.721-8.506,12.646,12.646,0,0,1,.392-4.8l.4-1.157.511-1.1a19.921,19.921,0,0,1,1.336-2.053l.859-.907c.146-.148.286-.3.439-.443l.5-.368,1-.726c.346-.207.707-.375,1.062-.562a13.816,13.816,0,0,1,2.159-.9,21.709,21.709,0,0,1,2.162-.633c2.87-.7,5.669-1.1,8.446-1.549a160.873,160.873,0,0,0,16.359-3.3c5.373-1.4,10.626-3.154,15.934-5.029a112.98,112.98,0,0,0,15.325-6.355,33.112,33.112,0,0,0,6.609-4.5,14.838,14.838,0,0,0,4.253-6.2,13.76,13.76,0,0,0,.339-7.485,25.935,25.935,0,0,0-2.91-7.372,60.128,60.128,0,0,0-10.227-12.82q-2.957-2.91-6.172-5.572a75.826,75.826,0,0,0-6.634-4.968,94.466,94.466,0,0,0-30.315-13.288c-10.752-2.553-22.152-3.118-32.807-.209a44.991,44.991,0,0,0-14.785,7.037,32.109,32.109,0,0,0-5.887,5.642A40.32,40.32,0,0,0,75.3,49.546c-2.524,4.923-4.437,10.227-6.708,15.4A104.494,104.494,0,0,1,60.705,80a111.913,111.913,0,0,1-22.716,25.075c-4.328,3.635-8.971,6.866-13.525,10.138a43.642,43.642,0,0,0-6.4,5.343,14.022,14.022,0,0,0-3.708,7.2,20.3,20.3,0,0,0,.223,8.233,29.9,29.9,0,0,0,3.01,7.765,60.216,60.216,0,0,0,10.271,13.238C35.825,164.932,45,171.524,54.256,177.882Zm-.194.281C44.8,171.8,35.61,165.2,27.62,157.235A62.432,62.432,0,0,1,17.141,144a30.456,30.456,0,0,1-3.159-7.875,20.945,20.945,0,0,1-.328-8.5,14.811,14.811,0,0,1,3.79-7.637,44.547,44.547,0,0,1,6.447-5.553c4.528-3.355,9.081-6.624,13.317-10.289A110.471,110.471,0,0,0,59.263,79.084a102.671,102.671,0,0,0,7.643-14.861c2.211-5.136,4.076-10.457,6.646-15.572a42.384,42.384,0,0,1,4.593-7.3,34.182,34.182,0,0,1,6.212-6.044,47.115,47.115,0,0,1,15.445-7.5c11.106-3.119,22.892-2.6,33.968-.063a97.038,97.038,0,0,1,31.267,13.425,78.614,78.614,0,0,1,6.911,5.074q3.31,2.69,6.4,5.668a62.975,62.975,0,0,1,10.862,13.38,28.985,28.985,0,0,1,3.322,8.23,16.943,16.943,0,0,1-.352,9.152,18.094,18.094,0,0,1-5.069,7.613,36.356,36.356,0,0,1-7.24,5.049,116,116,0,0,1-15.769,6.657c-5.287,1.89-10.689,3.771-16.208,5.187a164.376,164.376,0,0,1-16.711,3.306c-2.773.437-5.552.83-8.148,1.454s-4.908,1.6-6.377,3.361c-.347.463-.677.956-.986,1.458l-.392.8-.3.831a9.344,9.344,0,0,0-.341,3.55,24.3,24.3,0,0,0,2.305,7.512c2.272,5.012,5.054,10.114,6.543,15.774a32.583,32.583,0,0,1,1.1,8.7,30.245,30.245,0,0,1-.39,4.379l-.18,1.083-.265,1.063-.532,2.123a40.863,40.863,0,0,1-8.642,14.87,47.247,47.247,0,0,1-13.632,10.276A39.16,39.16,0,0,1,84.471,191.8a28.016,28.016,0,0,1-8.437-1.122,39.441,39.441,0,0,1-7.811-3.312A165.048,165.048,0,0,1,54.062,178.163Z" fill="url(#d)"/>
  </g>
  <g>
    <g>
      <path d="M326.541,101.047H312.754l.167,23.647a.394.394,0,0,1-.418.417h-3.509a.394.394,0,0,1-.418-.417l.167-30.165-.167-27.49a.4.4,0,0,1,.418-.418h17.3c11.949,0,19.8,5.765,19.8,17.046C346.094,95.7,337.988,101.047,326.541,101.047Zm-13.787-6.518v3.008h13.954c9.359,0,15.041-3.76,15.041-13.87,0-9.192-5.6-13.453-15.375-13.453H312.921Z" fill="#cbcbcb"/>
      <path d="M385.112,125.111a.629.629,0,0,1-.585-.417l-6.852-19.135H352.357l-6.768,19.135a.628.628,0,0,1-.585.417H341.5c-.251,0-.334-.167-.251-.417l21.14-57.655a.629.629,0,0,1,.585-.418h4.512a.627.627,0,0,1,.585.418l21.057,57.655c.083.25,0,.417-.251.417Zm-8.69-23.229L365.058,70.047l-11.364,31.835Z" fill="#cbcbcb"/>
      <path d="M402.573,125.111a.394.394,0,0,1-.418-.417l.167-28.327-.167-26.153H385.527a.4.4,0,0,1-.418-.418V67.039a.4.4,0,0,1,.418-.418h37.685a.394.394,0,0,1,.417.418V69.8a.394.394,0,0,1-.417.418H406.584l-.168,26.153.168,28.327a.4.4,0,0,1-.418.417Z" fill="#cbcbcb"/>
      <path d="M459.72,117.424,448.357,99.459H433.149l.167,25.235a.394.394,0,0,1-.418.417h-3.509a.394.394,0,0,1-.418-.417l.167-30.332-.167-27.323a.4.4,0,0,1,.418-.418h18.383c12.45,0,20.388,5.515,20.388,16.21,0,9.943-6.1,15.124-15.208,16.377l16.127,25.569c.167.167,0,.334-.167.334h-4.178a1.034,1.034,0,0,1-.669-.334ZM433.149,94.613v1.253h15.458c9.442,0,15.208-3.76,15.208-12.951,0-8.273-5.682-12.7-15.208-12.7H433.316Z" fill="#cbcbcb"/>
      <path d="M491.887,124.694a.394.394,0,0,1-.418.417h-3.593a.394.394,0,0,1-.417-.417l.083-20.639-19.051-37.1c-.084-.167.084-.334.251-.334h4.178a.7.7,0,0,1,.584.334l16.461,33.089,16.628-33.089a.705.705,0,0,1,.585-.334h3.677c.167,0,.334.167.251.334l-19.3,37.434Z" fill="#cbcbcb"/>
      <path d="M542.938,117.006,527.4,93.109l-7.687,8.94.167,22.645a.394.394,0,0,1-.418.417h-3.593a.394.394,0,0,1-.417-.417l.25-30.248-.167-27.407a.4.4,0,0,1,.418-.418h3.509a.4.4,0,0,1,.418.418l-.167,27.323v2.59l24.984-30a1.032,1.032,0,0,1,.668-.334h4.345c.167,0,.251.167.167.334L530.321,89.683l22.895,35.094c.083.167,0,.334-.167.334H548.62a1.03,1.03,0,0,1-.668-.334Z" fill="#cbcbcb"/>
    </g>
    <path d="M226.386,125.255a.4.4,0,0,1-.419-.417l.252-30.246-.252-27.4a.4.4,0,0,1,.419-.418h7.933c16.794,0,28.574,11.112,28.574,28.909,0,19.383-13.284,29.576-28.407,29.576Zm4.176-3.592h4.593c10.944,0,23.31-7.687,23.31-25.9,0-16.877-10.862-25.4-23.645-25.4h-4.258c0,.085-.166,22.559-.166,24.146C230.4,96.18,230.562,121.579,230.562,121.663Z" fill="#cbcbcb"/>
    <path d="M280.461,66.633h-3.593a.394.394,0,0,0-.417.418l.084,28.745v19.8c0,10.945-2.256,18.046-11.949,18.046-.413,0-.808-.017-1.195-.044v3.674c.395.02.783.047,1.195.047,11.53,0,16.21-7.687,16.21-21.723V95.8l.084-28.745A.4.4,0,0,0,280.461,66.633Z" fill="#cbcbcb"/>
    <path d="M226.386,201.978a.4.4,0,0,1-.419-.417l.252-30.246-.252-27.4a.4.4,0,0,1,.419-.418h7.933c16.794,0,28.574,11.112,28.574,28.909,0,19.383-13.284,29.576-28.407,29.576Zm4.176-3.592h4.593c10.944,0,23.31-7.687,23.31-25.9,0-16.877-10.862-25.4-23.645-25.4h-4.258c0,.085-.166,22.559-.166,24.146C230.4,172.9,230.562,198.3,230.562,198.386Z" fill="#cbcbcb"/>
    <path d="M280.461,143.356h-3.593a.394.394,0,0,0-.417.418l.084,28.745v19.8c0,10.945-2.256,18.046-11.949,18.046-.413,0-.808-.017-1.195-.044V214c.395.02.783.047,1.195.047,11.53,0,16.21-7.687,16.21-21.723v-19.8l.084-28.745A.4.4,0,0,0,280.461,143.356Z" fill="#cbcbcb"/>
    <g>
      <path d="M323.7,201.331a.4.4,0,0,1-.418-.418l.167-28.326-.167-26.153H306.657a.4.4,0,0,1-.418-.418v-2.758a.394.394,0,0,1,.418-.417h37.685a.4.4,0,0,1,.418.417v2.758a.4.4,0,0,1-.418.418H327.714l-.167,26.153.167,28.326a.4.4,0,0,1-.418.418Z" fill="#cbcbcb"/>
      <path d="M370.66,202.25c-16.127,0-26.823-11.614-26.823-30.164,0-18.717,10.7-30.165,26.906-30.165,16.127,0,26.822,11.364,26.822,30.165C397.565,190.719,386.786,202.25,370.66,202.25Zm0-3.676c13.787,0,22.477-9.86,22.477-26.488,0-16.545-8.69-26.488-22.477-26.488-13.7,0-22.31,9.943-22.31,26.488S357.04,198.574,370.66,198.574Z" fill="#cbcbcb"/>
      <path d="M409.341,173.506l.167,27.407a.4.4,0,0,1-.418.418h-3.342a.4.4,0,0,1-.418-.418l.167-27.824-.167-29.831a.394.394,0,0,1,.418-.417h5.181a.628.628,0,0,1,.584.417l20.806,52.475,20.556-52.475a.628.628,0,0,1,.585-.417h4.929a.394.394,0,0,1,.418.417l-.083,29.831.167,27.824a.4.4,0,0,1-.418.418H454.88a.4.4,0,0,1-.418-.418l.167-27.407V159.051l.167-10.445-20.722,52.307a.627.627,0,0,1-.585.418h-2.841a.629.629,0,0,1-.585-.418l-20.889-52.14.167,10.361Z" fill="#cbcbcb"/>
      <path d="M468.581,201.331a.4.4,0,0,1-.418-.418l.167-30.582-.167-27.073a.394.394,0,0,1,.418-.417h33a.394.394,0,0,1,.418.417v2.758a.4.4,0,0,1-.418.418H472.508l-.167,21.641h27.574a.4.4,0,0,1,.418.418v2.757a.4.4,0,0,1-.418.418H472.341l.167,26.07h29.746a.4.4,0,0,1,.418.418v2.757a.4.4,0,0,1-.418.418Z" fill="#cbcbcb"/>
      <path d="M536.173,193.226l-15.542-23.9-7.687,8.941.167,22.644a.4.4,0,0,1-.418.418H509.1a.4.4,0,0,1-.418-.418l.251-30.248-.167-27.407a.394.394,0,0,1,.418-.417h3.509a.394.394,0,0,1,.418.417l-.167,27.324v2.59l24.984-30a1.03,1.03,0,0,1,.668-.334h4.345c.167,0,.251.167.167.334L523.556,165.9,546.451,201c.083.167,0,.334-.168.334h-4.428a1.034,1.034,0,0,1-.669-.334Z" fill="#cbcbcb"/>
    </g>
    <path d="M196.352,201.331a1.032,1.032,0,0,1-.669-.334l-7.019-7.52a22.97,22.97,0,0,1-18.132,8.773c-9.609,0-18.884-5.431-18.884-16.21,0-9.024,6.685-13.7,13.7-17.714-4.345-5.1-6.685-9.275-6.685-14.456,0-6.35,4.262-12.2,13.369-12.2,7.6,0,13.37,4.679,13.37,11.865,0,7.687-6.936,11.615-14.122,15.542,1.922,2.172,4.262,4.679,7.019,7.687l10.027,10.779a40.455,40.455,0,0,0,3.927-16.461.4.4,0,0,1,.418-.418H195.6a.4.4,0,0,1,.417.418,39.226,39.226,0,0,1-5.1,19.219L200.947,201c.084.167,0,.334-.167.334Zm-25.485-2.507a18.741,18.741,0,0,0,15.374-7.938l-13.118-14.121c-2.006-2.089-3.76-4.011-5.348-5.765-6.35,3.676-11.949,7.771-11.949,15.04C155.826,193.811,161.759,198.824,170.867,198.824Zm-8.106-44.787c0,4.095,1.672,7.1,6.184,12.367,6.684-3.509,12.7-6.935,12.7-13.035,0-5.1-3.761-8.523-9.526-8.523C166.271,144.846,162.761,147.771,162.761,154.037Z" fill="#cbcbcb"/>
  </g>
</svg>
